<svg id="Layer_3" enable-background="new 0 0 64 64" height="32" viewBox="0 0 64 64" width="32" xmlns="http://www.w3.org/2000/svg"><g><path d="m48.293 10.293 1.414 1.414 1.793-1.793 2.793 2.793 1.414-1.414-7-7-1.414 1.414 2.793 2.793z" fill="#2d4d83"/><path d="m12.5 9.914 1.793 1.793 1.414-1.414-1.793-1.793 2.793-2.793-1.414-1.414-7 7 1.414 1.414z" fill="#2d4d83"/><path d="m54 6h6v26h-6z" fill="#4472b2"/><path d="m4 6h6v26h-6z" fill="#4472b2"/><path d="m2 2h60v4h-60z" fill="#a8b0bc"/><path d="m39 32v-6h-14v6" fill="#d6759e"/><path d="m25 26v3.757c.791.158 1.63.243 2.5.243 3.89 0 7.162-1.693 8.172-4z" fill="#f097d0"/><path d="m2 32h60v6h-60z" fill="#a8b0bc"/><g fill="#3d98f7"><path d="m10 56v6h-4v-6"/><path d="m25 56v6h-4v-6"/><path d="m43 56v6h-4v-6"/><path d="m58 56v6h-4v-6"/></g><path d="m4 10.586v2.828l4.586 4.586-4.586 4.586v2.828l5.293 5.293.707-.707v-1.414l-4.586-4.586 4.586-4.586v-2.828l-4.586-4.586 4.586-4.586v-1.414h-1.414z" fill="#2d4d83"/><path d="m58.586 12-4.586 4.586v2.828l4.586 4.586-4.586 4.586v1.414l.707.707 5.293-5.293v-2.828l-4.586-4.586 4.586-4.586v-2.828l-4.586-4.586h-1.414v1.414z" fill="#2d4d83"/><path d="m37.789 18h14.422v2h-14.422z" fill="#f9d18b" transform="matrix(.555 -.832 .832 .555 4.23 45.903)"/><path d="m37.092 13h10.817v2h-10.817z" fill="#f9d18b" transform="matrix(.832 -.555 .555 .832 -.628 25.926)"/><path d="m18 11.789h2v14.422h-2z" fill="#f9d18b" transform="matrix(.832 -.555 .555 .832 -7.348 13.73)"/><path d="m20.5 8.592h2v10.817h-2z" fill="#f9d18b" transform="matrix(.555 -.832 .832 .555 -2.075 24.123)"/><circle cx="32" cy="19" fill="#efbe9a" r="2"/><path d="m29.2 23.6c.188.252.485.4.8.4h4c.315 0 .611-.148.8-.4l3-4-1.6-1.2-2.7 3.6h-3l-2.7-3.6-1.6 1.2z" fill="#4472b2"/><path d="m8 54c1.654 0 3-1.346 3-3s-1.346-3-3-3-3 1.346-3 3 1.346 3 3 3zm0-4c.551 0 1 .448 1 1s-.449 1-1 1-1-.448-1-1 .449-1 1-1z" fill="#efbe9a"/><path d="m9.52 55h-3.04l-3.7-4.625-1.562 1.25 4 5c.191.237.478.375.782.375h4c.304 0 .591-.138.781-.375l4-5-1.562-1.25z" fill="#4472b2"/><path d="m23 54c1.654 0 3-1.346 3-3s-1.346-3-3-3-3 1.346-3 3 1.346 3 3 3zm0-4c.551 0 1 .448 1 1s-.449 1-1 1-1-.448-1-1 .449-1 1-1z" fill="#efbe9a"/><path d="m24.52 55h-3.04l-3.7-4.625-1.562 1.25 4 5c.191.237.478.375.782.375h4c.304 0 .591-.138.781-.375l4-5-1.562-1.25z" fill="#4472b2"/><path d="m38 51c0 1.654 1.346 3 3 3s3-1.346 3-3-1.346-3-3-3-3 1.346-3 3zm3-1c.551 0 1 .448 1 1s-.449 1-1 1-1-.448-1-1 .449-1 1-1z" fill="#efbe9a"/><path d="m42.52 55h-3.04l-3.7-4.625-1.562 1.25 4 5c.191.237.478.375.782.375h4c.304 0 .591-.138.781-.375l4-5-1.562-1.25z" fill="#4472b2"/><path d="m53 51c0 1.654 1.346 3 3 3s3-1.346 3-3-1.346-3-3-3-3 1.346-3 3zm3-1c.551 0 1 .448 1 1s-.449 1-1 1-1-.448-1-1 .449-1 1-1z" fill="#efbe9a"/><path d="m61.219 50.375-3.699 4.625h-3.04l-3.7-4.625-1.562 1.25 4 5c.191.237.478.375.782.375h4c.304 0 .591-.138.781-.375l4-5z" fill="#4472b2"/><path d="m45 44c0 1.654 1.346 3 3 3s3-1.346 3-3-1.346-3-3-3-3 1.346-3 3zm3-1c.551 0 1 .448 1 1s-.449 1-1 1-1-.448-1-1 .449-1 1-1z" fill="#efbe9a"/><path d="m46 50h4c.304 0 .591-.138.781-.375l4-5-1.562-1.25-3.699 4.625h-3.04l-3.7-4.625-1.562 1.25 4 5c.191.237.478.375.782.375z" fill="#4472b2"/><path d="m32 41c-1.654 0-3 1.346-3 3s1.346 3 3 3 3-1.346 3-3-1.346-3-3-3zm0 4c-.551 0-1-.448-1-1s.449-1 1-1 1 .448 1 1-.449 1-1 1z" fill="#efbe9a"/><path d="m38.781 44.625-1.562-1.25-3.699 4.625h-3.04l-3.7-4.625-1.562 1.25 4 5c.191.237.478.375.782.375h4c.304 0 .591-.138.781-.375z" fill="#4472b2"/><path d="m13 44c0 1.654 1.346 3 3 3s3-1.346 3-3-1.346-3-3-3-3 1.346-3 3zm3-1c.551 0 1 .448 1 1s-.449 1-1 1-1-.448-1-1 .449-1 1-1z" fill="#efbe9a"/><path d="m9.219 44.625 4 5c.19.237.477.375.781.375h4c.304 0 .591-.138.781-.375l4-5-1.562-1.25-3.699 4.625h-3.04l-3.7-4.625z" fill="#4472b2"/></g></svg>
